<svg id="Layer_1" data-name="Layer 1" xmlns="http://www.w3.org/2000/svg" viewBox="0 0 794.97 822.48"><defs><style>.cls-1{fill:#70a780;}.cls-2{fill:#ffdc83;}.cls-3{fill:#ffff80;}.cls-4{fill:#599180;}.cls-5{fill:#fff;}.cls-5,.cls-6{stroke:#000;stroke-width:16px;}.cls-5,.cls-6,.cls-7{stroke-miterlimit:10;}.cls-6,.cls-7{fill:none;}.cls-7{stroke:#ffdc83;stroke-width:42px;}</style></defs><title>logo_reciclo</title><path id="_6" data-name="6" class="cls-1" d="M823.86,799.49c2.54-4.42,8.36-15.2,15.94-29.52L775.38,638.32c1.36,7.64-2.42,12.85-11.68,12.9l-66.63.4-.36-40.81c-.22-23.71-12.3-31.41-26.89-17.1l-41,40.22c-14.58,14.28-38.45,37.67-53,52l-41,40.22a35.59,35.59,0,0,0,.42,51.49l41.73,39.47,53.92,51,41.71,39.47c14.83,14,26.81,6.11,26.59-17.6l-.36-38.8,51-.31C796.19,850.56,813.71,817,823.86,799.49Z" transform="translate(-143 -92)"/><path id="_3" data-name="3" class="cls-1" d="M366.74,158.18c-17.68,27.48-62.52,100.61-62.52,100.61a34.53,34.53,0,0,0,11.4,47.64l110,66a34.7,34.7,0,0,0,47.54-12.26l67.76-113.94c5.9-10,13-11.52,18.77-5.57L490.8,117l-39.71.23C422.46,117.37,389.73,122.46,366.74,158.18Z" transform="translate(-143 -92)"/><path id="_1" data-name="1" class="cls-1" d="M322,624.4,244.06,754.76c14,25.82,25.17,46.44,28.13,52.16,8.22,16,20,47.31,94.37,46.88l108.12-.64c18.9-.11,34.31-16,34.19-35.39l-.72-130.56c-.12-19.37-15.67-35.12-34.61-35l-147.67.86c-13.33.08-15-9-10.35-17.36C316.16,634.57,318.55,630.43,322,624.4Z" transform="translate(-143 -92)"/><ellipse class="cls-2" cx="388.23" cy="417.94" rx="232.23" ry="298.06"/><ellipse class="cls-3" cx="420.77" cy="411.06" rx="232.23" ry="298.06"/><path id="_2" data-name="2" class="cls-4" d="M172.26,620.48c12.38,24.59,46.67,87.89,71.8,134.28L322,624.4c9.18-16,26.21-45.78,40.41-70.41l39.89,22.68c20.25,11.52,32.78,4.55,27.83-15.48l-14-56.36c-4.94-20-13.05-52.79-18-72.81l-13.92-56.36c-5-20-24.75-31.29-44-25l-54.14,17.65c-19.24,6.27-50.71,16.53-70,22.79L162,408.7c-19.24,6.27-18.42,20.83,1.82,32.33l29.41,16.74c-15,29.73-32.71,64.83-37.17,74.9C148,550.86,153,582.24,172.26,620.48Z" transform="translate(-143 -92)"/><path id="_4" data-name="4" class="cls-4" d="M557.57,352.73,612.12,369l70.51,21,54.56,16.25c19.38,5.76,38.89-6,43.35-26.15l12.57-56.69c4.44-20.15,11.72-53.12,16.18-73.28l12.57-56.69c4.48-20.14-8.23-26.78-28.19-14.75l-34.24,20.64c-12.54-21.88-25.08-43.64-29.93-51.6-11-18.09-32.21-31.92-73.82-31.68L490.8,117l68.85,123.71a23.19,23.19,0,0,1,4.26,6.2c3.28,6.79,15.76,30.18,28.19,53.29l-33.49,20.19C538.64,332.39,538.18,347,557.57,352.73Z" transform="translate(-143 -92)"/><path id="_5" data-name="5" class="cls-4" d="M775.38,638.32,839.8,770c22.55-42.5,60.82-116.32,76.47-148.23,20.92-42.7,26.85-79.71,17.2-99.16s-57.36-114.12-57.36-114.12c-8.68-17.22-29-23-45.07-12.85L721.8,464.37c-16.12,10.13-21.77,32.27-12.56,49.18,0,0,33.19,61.06,51.67,95.24,5.75,10.6,10.09,18.65,11.55,21.44A29,29,0,0,1,775.38,638.32Z" transform="translate(-143 -92)"/><path class="cls-5" d="M194,63" transform="translate(-143 -92)"/><path class="cls-5" d="M230,233c-43.63,0-79-24.62-79-55s35.37-55,79-55" transform="translate(-143 -92)"/><line class="cls-6" x1="48" y1="25" x2="48"/><line class="cls-6" x1="48" y1="136" x2="48" y2="162"/><path class="cls-7" d="M594,430.9c-53,0-106,4.68-106,70.1s53,70.1,106,70.1" transform="translate(-143 -92)"/></svg>